<svg fill="#000000" xmlns="http://www.w3.org/2000/svg" xmlns:xlink="http://www.w3.org/1999/xlink" version="1.1" x="0px" y="0px" viewBox="0 0 100 100"><path style="stroke:none;fill-rule:nonzero;fill:rgb(100%,0%,0%);fill-opacity:1;" d="M80.2,29.4H19.8c-4.2,0-7.6,3.4-7.6,7.6V63c0,4.2,3.4,7.6,7.6,7.6h21.9l5-9c1.5-2.5,5.1-2.5,6.5,0l5,9h21.9  c4.2,0,7.6-3.4,7.6-7.6V37C87.8,32.8,84.4,29.4,80.2,29.4z M32.8,59.1c-5.1,0-9.2-4.1-9.2-9.2c0-5.1,4.1-9.2,9.2-9.2  c5.1,0,9.2,4.1,9.2,9.2C42,55,37.9,59.1,32.8,59.1z M66.3,59.1c-5.1,0-9.2-4.1-9.2-9.2c0-5.1,4.1-9.2,9.2-9.2c5.1,0,9.2,4.1,9.2,9.2  C75.5,55,71.4,59.1,66.3,59.1z"/></svg>
