<svg width="550" height="320" xmlns="http://www.w3.org/2000/svg"><path d="M 86.4 255.2 L 86.4 39.2 M 108.0 255.2 L 108.0 39.2 M 129.6 255.2 L 129.6 39.2 M 151.1 255.2 L 151.1 39.2 M 172.7 255.2 L 172.7 39.2 M 194.3 255.2 L 194.3 39.2 M 215.9 255.2 L 215.9 39.2 M 237.4 255.2 L 237.4 39.2 M 259.0 255.2 L 259.0 39.2 M 280.6 255.2 L 280.6 39.2 M 302.2 255.2 L 302.2 39.2 M 86.4 255.2 L 302.4 255.2 M 86.4 233.6 L 302.4 233.6 M 86.4 212.0 L 302.4 212.0 M 86.4 190.5 L 302.4 190.5 M 86.4 168.9 L 302.4 168.9 M 86.4 147.3 L 302.4 147.3 M 86.4 125.7 L 302.4 125.7 M 86.4 104.2 L 302.4 104.2 M 86.4 82.6 L 302.4 82.6 M 86.4 61.0 L 302.4 61.0 M 86.4 39.4 L 302.4 39.4 " fill="none" stroke="#bebebe" stroke-opacity="1.0" stroke-width="1.0"></path><text x="215.9" y="147.3" fill="#000000" font-family="Helvetica" dy="0.3em" font-size="12" opacity="1.0" text-anchor="start">htextleft</text><text x="172.7" y="147.3" fill="#000000" font-family="Helvetica" dy="0.3em" font-size="12" opacity="1.0" text-anchor="end">htextright</text><text x="194.3" y="233.6" fill="#000000" font-family="Helvetica" dy="0.3em" font-size="12" opacity="1.0" text-anchor="middle">htextcenter</text><text x="194.3" y="169.0" fill="#000000" transform="rotate(-90,194.3,169.0)" font-family="Helvetica" dy="0.3em" font-size="12" opacity="1.0" text-anchor="end">vtexttop</text><text x="194.3" y="126.0" fill="#000000" transform="rotate(-90,194.3,126.0)" font-family="Helvetica" dy="0.3em" font-size="12" opacity="1.0" text-anchor="start">vtextbottom</text><text x="108.0" y="148.0" fill="#000000" transform="rotate(-90,108.0,148.0)" font-family="Helvetica" dy="0.3em" font-size="12" opacity="1.0" text-anchor="middle">vtextcenter</text></svg>