<svg version="1.1" viewBox="0 0 2048 256" xmlns="http://www.w3.org/2000/svg"><defs><linearGradient id="grad1" x1="0%" y1="0%" x2="100%" y2="0%"><stop offset="0%" style="stop-color:rgb(0,180,155);stop-opacity:1.0"></stop><stop offset="100%" style="stop-color:rgb(154,69,185);stop-opacity:1.0"></stop></linearGradient></defs><rect x="0.0" y="0.0" width="2048.0" height="256.0" style="stroke: none;fill: url(#grad1);"></rect><circle cx="1503.7" cy="47.1" r="9.6" stroke="none" fill="#ffffff" fill-opacity="0.0"></circle><circle cx="1622.4" cy="226.5" r="1.4" stroke="none" fill="#ffffff" fill-opacity="0.0"></circle><circle cx="1411.2" cy="215.1" r="24.5" stroke="none" fill="#ffffff" fill-opacity="0.1"></circle><circle cx="829.5" cy="117.8" r="7.3" stroke="none" fill="#ffffff" fill-opacity="0.1"></circle><circle cx="65.3" cy="142.1" r="22.4" stroke="none" fill="#ffffff" fill-opacity="0.1"></circle><circle cx="956.7" cy="121.6" r="29.2" stroke="none" fill="#ffffff" fill-opacity="0.0"></circle><circle cx="663.8" cy="213.9" r="30.6" stroke="none" fill="#ffffff" fill-opacity="0.0"></circle><circle cx="1616.5" cy="154.5" r="19.0" stroke="none" fill="#ffffff" fill-opacity="0.1"></circle><circle cx="468.9" cy="34.5" r="23.5" stroke="none" fill="#ffffff" fill-opacity="0.1"></circle><circle cx="1171.0" cy="154.4" r="9.8" stroke="none" fill="#ffffff" fill-opacity="0.0"></circle><circle cx="1392.0" cy="35.5" r="17.4" stroke="none" fill="#ffffff" fill-opacity="0.1"></circle><circle cx="380.5" cy="64.8" r="26.5" stroke="none" fill="#ffffff" fill-opacity="0.0"></circle><circle cx="234.5" cy="116.8" r="21.1" stroke="none" fill="#ffffff" fill-opacity="0.1"></circle><circle cx="1538.0" cy="113.4" r="6.5" stroke="none" fill="#ffffff" fill-opacity="0.1"></circle><circle cx="554.6" cy="16.4" r="26.4" stroke="none" fill="#ffffff" fill-opacity="0.1"></circle><circle cx="293.0" cy="220.3" r="19.4" stroke="none" fill="#ffffff" fill-opacity="0.0"></circle><circle cx="964.4" cy="128.7" r="4.3" stroke="none" fill="#ffffff" fill-opacity="0.1"></circle><circle cx="1712.4" cy="14.0" r="23.2" stroke="none" fill="#ffffff" fill-opacity="0.1"></circle><circle cx="639.8" cy="87.2" r="11.7" stroke="none" fill="#ffffff" fill-opacity="0.1"></circle><circle cx="529.3" cy="49.5" r="19.9" stroke="none" fill="#ffffff" fill-opacity="0.1"></circle><circle cx="1143.6" cy="115.8" r="24.2" stroke="none" fill="#ffffff" fill-opacity="0.1"></circle><circle cx="1786.1" cy="126.2" r="15.2" stroke="none" fill="#ffffff" fill-opacity="0.0"></circle><circle cx="1964.4" cy="244.4" r="7.9" stroke="none" fill="#ffffff" fill-opacity="0.0"></circle><circle cx="1582.2" cy="31.1" r="30.0" stroke="none" fill="#ffffff" fill-opacity="0.1"></circle><circle cx="113.5" cy="89.7" r="28.5" stroke="none" fill="#ffffff" fill-opacity="0.1"></circle><circle cx="1070.4" cy="72.7" r="19.9" stroke="none" fill="#ffffff" fill-opacity="0.0"></circle><circle cx="913.0" cy="242.5" r="24.4" stroke="none" fill="#ffffff" fill-opacity="0.0"></circle><circle cx="1373.6" cy="135.0" r="27.6" stroke="none" fill="#ffffff" fill-opacity="0.1"></circle><circle cx="1025.0" cy="244.3" r="12.0" stroke="none" fill="#ffffff" fill-opacity="0.1"></circle><circle cx="925.5" cy="62.2" r="19.8" stroke="none" fill="#ffffff" fill-opacity="0.1"></circle><circle cx="370.9" cy="247.7" r="9.4" stroke="none" fill="#ffffff" fill-opacity="0.0"></circle><circle cx="877.3" cy="166.4" r="11.5" stroke="none" fill="#ffffff" fill-opacity="0.1"></circle><circle cx="77.5" cy="184.0" r="6.2" stroke="none" fill="#ffffff" fill-opacity="0.0"></circle><circle cx="1176.5" cy="75.5" r="26.6" stroke="none" fill="#ffffff" fill-opacity="0.0"></circle><circle cx="1786.2" cy="232.3" r="15.2" stroke="none" fill="#ffffff" fill-opacity="0.0"></circle><circle cx="1480.4" cy="2.1" r="29.0" stroke="none" fill="#ffffff" fill-opacity="0.1"></circle><circle cx="1383.9" cy="4.6" r="29.0" stroke="none" fill="#ffffff" fill-opacity="0.1"></circle><circle cx="1931.7" cy="173.8" r="9.5" stroke="none" fill="#ffffff" fill-opacity="0.1"></circle><circle cx="1881.9" cy="140.0" r="4.9" stroke="none" fill="#ffffff" fill-opacity="0.0"></circle><circle cx="1236.3" cy="56.5" r="27.2" stroke="none" fill="#ffffff" fill-opacity="0.0"></circle><circle cx="634.1" cy="11.2" r="28.9" stroke="none" fill="#ffffff" fill-opacity="0.0"></circle><circle cx="977.4" cy="209.8" r="11.0" stroke="none" fill="#ffffff" fill-opacity="0.0"></circle><circle cx="1052.9" cy="127.6" r="9.5" stroke="none" fill="#ffffff" fill-opacity="0.0"></circle><circle cx="793.5" cy="158.9" r="21.9" stroke="none" fill="#ffffff" fill-opacity="0.1"></circle><circle cx="1731.5" cy="162.2" r="16.9" stroke="none" fill="#ffffff" fill-opacity="0.1"></circle><circle cx="164.6" cy="122.9" r="9.6" stroke="none" fill="#ffffff" fill-opacity="0.0"></circle><circle cx="1592.3" cy="42.4" r="21.1" stroke="none" fill="#ffffff" fill-opacity="0.1"></circle><circle cx="1788.2" cy="0.9" r="8.8" stroke="none" fill="#ffffff" fill-opacity="0.1"></circle><circle cx="1319.7" cy="227.2" r="7.2" stroke="none" fill="#ffffff" fill-opacity="0.1"></circle><circle cx="1915.8" cy="126.3" r="30.8" stroke="none" fill="#ffffff" fill-opacity="0.1"></circle><circle cx="309.3" cy="169.8" r="10.2" stroke="none" fill="#ffffff" fill-opacity="0.0"></circle><circle cx="10.8" cy="32.0" r="10.5" stroke="none" fill="#ffffff" fill-opacity="0.0"></circle><circle cx="15.2" cy="152.2" r="21.4" stroke="none" fill="#ffffff" fill-opacity="0.1"></circle><circle cx="574.9" cy="99.3" r="5.1" stroke="none" fill="#ffffff" fill-opacity="0.0"></circle><circle cx="893.0" cy="119.9" r="4.5" stroke="none" fill="#ffffff" fill-opacity="0.0"></circle><circle cx="917.6" cy="43.0" r="7.2" stroke="none" fill="#ffffff" fill-opacity="0.0"></circle><circle cx="316.3" cy="204.6" r="18.9" stroke="none" fill="#ffffff" fill-opacity="0.1"></circle><circle cx="1800.5" cy="114.1" r="23.1" stroke="none" fill="#ffffff" fill-opacity="0.1"></circle><circle cx="895.9" cy="231.3" r="30.6" stroke="none" fill="#ffffff" fill-opacity="0.0"></circle><circle cx="557.5" cy="110.9" r="1.9" stroke="none" fill="#ffffff" fill-opacity="0.1"></circle><circle cx="368.6" cy="197.7" r="3.0" stroke="none" fill="#ffffff" fill-opacity="0.1"></circle><circle cx="827.3" cy="158.8" r="17.0" stroke="none" fill="#ffffff" fill-opacity="0.1"></circle><circle cx="1537.5" cy="58.7" r="25.3" stroke="none" fill="#ffffff" fill-opacity="0.1"></circle><circle cx="772.3" cy="26.8" r="11.2" stroke="none" fill="#ffffff" fill-opacity="0.1"></circle><circle cx="1672.0" cy="216.1" r="14.8" stroke="none" fill="#ffffff" fill-opacity="0.1"></circle><circle cx="1597.2" cy="95.9" r="8.3" stroke="none" fill="#ffffff" fill-opacity="0.0"></circle><circle cx="1512.1" cy="40.7" r="16.7" stroke="none" fill="#ffffff" fill-opacity="0.0"></circle><circle cx="226.4" cy="55.1" r="28.9" stroke="none" fill="#ffffff" fill-opacity="0.1"></circle><circle cx="441.9" cy="147.2" r="6.3" stroke="none" fill="#ffffff" fill-opacity="0.1"></circle><circle cx="1280.2" cy="248.3" r="23.8" stroke="none" fill="#ffffff" fill-opacity="0.0"></circle><circle cx="598.6" cy="186.3" r="17.3" stroke="none" fill="#ffffff" fill-opacity="0.1"></circle><circle cx="1683.7" cy="86.5" r="22.8" stroke="none" fill="#ffffff" fill-opacity="0.0"></circle><circle cx="707.2" cy="88.3" r="6.1" stroke="none" fill="#ffffff" fill-opacity="0.1"></circle><circle cx="773.2" cy="112.1" r="9.9" stroke="none" fill="#ffffff" fill-opacity="0.1"></circle><circle cx="1486.6" cy="148.2" r="14.1" stroke="none" fill="#ffffff" fill-opacity="0.1"></circle><circle cx="860.3" cy="254.2" r="10.2" stroke="none" fill="#ffffff" fill-opacity="0.0"></circle><circle cx="124.5" cy="158.1" r="12.1" stroke="none" fill="#ffffff" fill-opacity="0.1"></circle><circle cx="183.6" cy="78.0" r="6.4" stroke="none" fill="#ffffff" fill-opacity="0.1"></circle><circle cx="989.3" cy="24.2" r="10.8" stroke="none" fill="#ffffff" fill-opacity="0.1"></circle><circle cx="579.6" cy="238.6" r="5.5" stroke="none" fill="#ffffff" fill-opacity="0.1"></circle><circle cx="533.9" cy="8.9" r="19.5" stroke="none" fill="#ffffff" fill-opacity="0.1"></circle><circle cx="1204.0" cy="15.8" r="18.0" stroke="none" fill="#ffffff" fill-opacity="0.1"></circle><circle cx="382.3" cy="105.4" r="23.4" stroke="none" fill="#ffffff" fill-opacity="0.1"></circle><circle cx="1518.4" cy="244.6" r="20.9" stroke="none" fill="#ffffff" fill-opacity="0.1"></circle><circle cx="998.6" cy="251.9" r="6.4" stroke="none" fill="#ffffff" fill-opacity="0.1"></circle><circle cx="777.2" cy="83.5" r="10.3" stroke="none" fill="#ffffff" fill-opacity="0.1"></circle><circle cx="904.5" cy="182.9" r="22.9" stroke="none" fill="#ffffff" fill-opacity="0.1"></circle><circle cx="1854.7" cy="255.9" r="27.0" stroke="none" fill="#ffffff" fill-opacity="0.0"></circle><circle cx="320.8" cy="104.9" r="19.4" stroke="none" fill="#ffffff" fill-opacity="0.1"></circle><circle cx="529.9" cy="235.4" r="15.6" stroke="none" fill="#ffffff" fill-opacity="0.0"></circle><circle cx="1365.8" cy="169.3" r="30.9" stroke="none" fill="#ffffff" fill-opacity="0.0"></circle><circle cx="1336.5" cy="94.7" r="5.0" stroke="none" fill="#ffffff" fill-opacity="0.1"></circle><circle cx="286.4" cy="217.9" r="2.3" stroke="none" fill="#ffffff" fill-opacity="0.0"></circle><circle cx="242.1" cy="45.5" r="18.9" stroke="none" fill="#ffffff" fill-opacity="0.0"></circle><circle cx="1071.9" cy="85.0" r="8.1" stroke="none" fill="#ffffff" fill-opacity="0.0"></circle><circle cx="1562.9" cy="211.7" r="21.3" stroke="none" fill="#ffffff" fill-opacity="0.1"></circle><circle cx="1575.9" cy="198.4" r="14.7" stroke="none" fill="#ffffff" fill-opacity="0.0"></circle><circle cx="199.4" cy="63.4" r="14.1" stroke="none" fill="#ffffff" fill-opacity="0.1"></circle><circle cx="1898.6" cy="34.4" r="1.6" stroke="none" fill="#ffffff" fill-opacity="0.1"></circle><circle cx="1301.4" cy="26.7" r="25.4" stroke="none" fill="#ffffff" fill-opacity="0.1"></circle></svg>
